<mxfile host="app.diagrams.net" modified="2023-07-10T12:24:00.655Z" agent="Mozilla/5.0 (Macintosh; Intel Mac OS X 10_15_7) AppleWebKit/537.36 (KHTML, like Gecko) Chrome/112.0.0.0 Safari/537.36" etag="K8cersevjCzjNKDZzPE9" version="21.6.1" type="device">
  <diagram name="Seite-1" id="0t5hi9UCzWd6hm4Ykk8g">
    <mxGraphModel dx="2261" dy="891" grid="1" gridSize="10" guides="1" tooltips="1" connect="1" arrows="1" fold="1" page="1" pageScale="1" pageWidth="827" pageHeight="1169" math="0" shadow="0">
      <root>
        <mxCell id="0" />
        <mxCell id="1" parent="0" />
        <mxCell id="1meikTkN5eI31qIEgOiT-1" value="Conformity Assessment Body (CAB)" style="shape=umlActor;verticalLabelPosition=bottom;verticalAlign=top;html=1;outlineConnect=0;" vertex="1" parent="1">
          <mxGeometry x="399" y="280" width="30" height="60" as="geometry" />
        </mxCell>
        <mxCell id="1meikTkN5eI31qIEgOiT-2" value="Data Provider &amp;amp; Skill Delegator&lt;br&gt;(OEM)" style="shape=umlActor;verticalLabelPosition=bottom;verticalAlign=top;html=1;outlineConnect=0;" vertex="1" parent="1">
          <mxGeometry x="-20" y="680" width="30" height="60" as="geometry" />
        </mxCell>
        <mxCell id="1meikTkN5eI31qIEgOiT-5" value="Function Provider &amp;amp; Skill Consumer&lt;br&gt;(SUPPLIER)" style="shape=umlActor;verticalLabelPosition=bottom;verticalAlign=top;html=1;outlineConnect=0;" vertex="1" parent="1">
          <mxGeometry x="790" y="690" width="30" height="60" as="geometry" />
        </mxCell>
        <mxCell id="1meikTkN5eI31qIEgOiT-7" value="Reliability&lt;br&gt;Database" style="shape=cylinder3;whiteSpace=wrap;html=1;boundedLbl=1;backgroundOutline=1;size=15;" vertex="1" parent="1">
          <mxGeometry x="132.5" y="830" width="60" height="80" as="geometry" />
        </mxCell>
        <mxCell id="1meikTkN5eI31qIEgOiT-8" value="Behaviour&amp;nbsp;&lt;br&gt;Prognosis" style="ellipse;shape=cloud;whiteSpace=wrap;html=1;" vertex="1" parent="1">
          <mxGeometry x="562.5" y="830" width="120" height="80" as="geometry" />
        </mxCell>
        <mxCell id="1meikTkN5eI31qIEgOiT-16" style="edgeStyle=orthogonalEdgeStyle;rounded=0;orthogonalLoop=1;jettySize=auto;html=1;entryX=0.5;entryY=0;entryDx=0;entryDy=0;entryPerimeter=0;" edge="1" parent="1" source="1meikTkN5eI31qIEgOiT-10" target="1meikTkN5eI31qIEgOiT-7">
          <mxGeometry relative="1" as="geometry" />
        </mxCell>
        <mxCell id="1meikTkN5eI31qIEgOiT-10" value="product-agents&lt;br&gt;Provisioning Agent&lt;br&gt;1.9.5" style="shape=module;align=left;spacingLeft=20;align=center;verticalAlign=top;whiteSpace=wrap;html=1;" vertex="1" parent="1">
          <mxGeometry x="90" y="750" width="145" height="50" as="geometry" />
        </mxCell>
        <mxCell id="1meikTkN5eI31qIEgOiT-17" style="edgeStyle=orthogonalEdgeStyle;rounded=0;orthogonalLoop=1;jettySize=auto;html=1;" edge="1" parent="1" source="1meikTkN5eI31qIEgOiT-11" target="1meikTkN5eI31qIEgOiT-8">
          <mxGeometry relative="1" as="geometry" />
        </mxCell>
        <mxCell id="1meikTkN5eI31qIEgOiT-11" value="product-agents&lt;br&gt;Remoting Agent&lt;br&gt;1.9.5" style="shape=module;align=left;spacingLeft=20;align=center;verticalAlign=top;whiteSpace=wrap;html=1;" vertex="1" parent="1">
          <mxGeometry x="550" y="755" width="145" height="50" as="geometry" />
        </mxCell>
        <mxCell id="1meikTkN5eI31qIEgOiT-12" value="product-agents&lt;br&gt;Conforming Agent&lt;br&gt;1.9.5" style="shape=module;align=left;spacingLeft=20;align=center;verticalAlign=top;whiteSpace=wrap;html=1;" vertex="1" parent="1">
          <mxGeometry x="341" y="380" width="145" height="50" as="geometry" />
        </mxCell>
        <mxCell id="1meikTkN5eI31qIEgOiT-20" style="edgeStyle=orthogonalEdgeStyle;rounded=0;orthogonalLoop=1;jettySize=auto;html=1;entryX=0.5;entryY=0;entryDx=0;entryDy=0;" edge="1" parent="1" source="1meikTkN5eI31qIEgOiT-13" target="1meikTkN5eI31qIEgOiT-10">
          <mxGeometry relative="1" as="geometry" />
        </mxCell>
        <mxCell id="1meikTkN5eI31qIEgOiT-13" value="product-agents-edc&lt;br&gt;agent connector&lt;br&gt;1.9.5" style="shape=module;align=left;spacingLeft=20;align=center;verticalAlign=top;whiteSpace=wrap;html=1;" vertex="1" parent="1">
          <mxGeometry x="90" y="670" width="145" height="50" as="geometry" />
        </mxCell>
        <mxCell id="1meikTkN5eI31qIEgOiT-19" style="edgeStyle=orthogonalEdgeStyle;rounded=0;orthogonalLoop=1;jettySize=auto;html=1;entryX=0.5;entryY=0;entryDx=0;entryDy=0;" edge="1" parent="1" source="1meikTkN5eI31qIEgOiT-14" target="1meikTkN5eI31qIEgOiT-11">
          <mxGeometry relative="1" as="geometry" />
        </mxCell>
        <mxCell id="1meikTkN5eI31qIEgOiT-14" value="product-agents-edc&lt;br&gt;agent connector&lt;br&gt;1.9.5" style="shape=module;align=left;spacingLeft=20;align=center;verticalAlign=top;whiteSpace=wrap;html=1;" vertex="1" parent="1">
          <mxGeometry x="550" y="670" width="145" height="50" as="geometry" />
        </mxCell>
        <mxCell id="1meikTkN5eI31qIEgOiT-18" style="edgeStyle=orthogonalEdgeStyle;rounded=0;orthogonalLoop=1;jettySize=auto;html=1;" edge="1" parent="1" source="1meikTkN5eI31qIEgOiT-15" target="1meikTkN5eI31qIEgOiT-12">
          <mxGeometry relative="1" as="geometry" />
        </mxCell>
        <mxCell id="1meikTkN5eI31qIEgOiT-15" value="product-agents-edc&lt;br&gt;agent connector&lt;br&gt;1.9.5" style="shape=module;align=left;spacingLeft=20;align=center;verticalAlign=top;whiteSpace=wrap;html=1;" vertex="1" parent="1">
          <mxGeometry x="341" y="460" width="145" height="50" as="geometry" />
        </mxCell>
        <mxCell id="1meikTkN5eI31qIEgOiT-21" value="OEM Integration Test" style="endArrow=classic;startArrow=classic;html=1;rounded=0;exitX=0.5;exitY=0;exitDx=0;exitDy=0;entryX=0;entryY=1;entryDx=10;entryDy=0;entryPerimeter=0;" edge="1" parent="1" source="1meikTkN5eI31qIEgOiT-13" target="1meikTkN5eI31qIEgOiT-15">
          <mxGeometry width="50" height="50" relative="1" as="geometry">
            <mxPoint x="390" y="610" as="sourcePoint" />
            <mxPoint x="440" y="560" as="targetPoint" />
          </mxGeometry>
        </mxCell>
        <mxCell id="1meikTkN5eI31qIEgOiT-22" value="Supplier Integration Test" style="endArrow=classic;startArrow=classic;html=1;rounded=0;exitX=0.586;exitY=-0.04;exitDx=0;exitDy=0;entryX=1;entryY=1;entryDx=0;entryDy=0;exitPerimeter=0;" edge="1" parent="1" source="1meikTkN5eI31qIEgOiT-14" target="1meikTkN5eI31qIEgOiT-15">
          <mxGeometry width="50" height="50" relative="1" as="geometry">
            <mxPoint x="173" y="680" as="sourcePoint" />
            <mxPoint x="361" y="520" as="targetPoint" />
          </mxGeometry>
        </mxCell>
        <mxCell id="1meikTkN5eI31qIEgOiT-23" value="E2E Test" style="endArrow=classic;html=1;rounded=0;exitX=0;exitY=0;exitDx=0;exitDy=15;exitPerimeter=0;entryX=1;entryY=0.5;entryDx=0;entryDy=0;" edge="1" parent="1" source="1meikTkN5eI31qIEgOiT-14" target="1meikTkN5eI31qIEgOiT-13">
          <mxGeometry x="0.0138" y="-10" width="50" height="50" relative="1" as="geometry">
            <mxPoint x="390" y="610" as="sourcePoint" />
            <mxPoint x="440" y="560" as="targetPoint" />
            <mxPoint as="offset" />
          </mxGeometry>
        </mxCell>
        <mxCell id="1meikTkN5eI31qIEgOiT-24" value="" style="endArrow=classic;html=1;rounded=0;exitX=1;exitY=0.5;exitDx=0;exitDy=0;entryX=0;entryY=0;entryDx=0;entryDy=35;entryPerimeter=0;" edge="1" parent="1" source="1meikTkN5eI31qIEgOiT-13" target="1meikTkN5eI31qIEgOiT-14">
          <mxGeometry width="50" height="50" relative="1" as="geometry">
            <mxPoint x="560" y="695" as="sourcePoint" />
            <mxPoint x="550" y="705" as="targetPoint" />
          </mxGeometry>
        </mxCell>
      </root>
    </mxGraphModel>
  </diagram>
</mxfile>
